# Blender 4.4.1
# www.blender.org
mtllib Furnace.mtl
o Cube
v -1.000000 -2.000000 2.000000
v -0.800000 -1.800000 -1.200000
v -1.000000 0.000000 0.000000
v -0.800000 -0.200000 -1.200000
v -0.800000 -1.800000 1.200000
v -1.000000 -2.000000 -2.000000
v 0.800000 -1.800000 -1.200000
v -1.000000 2.000000 -2.000000
v 0.800000 -0.200000 -1.200000
v -0.800000 -0.200000 1.200000
v 1.000000 -2.000000 2.000000
v 1.000000 0.000000 0.000000
v 0.800000 -1.800000 1.200000
v 1.000000 -2.000000 -2.000000
v 0.800000 -0.200000 1.200000
v 1.000000 2.000000 -2.000000
v -1.000000 -2.000000 0.000000
v -1.000000 0.000000 2.000000
v -1.000000 2.000000 0.000000
v -1.000000 0.000000 -2.000000
v 1.000000 0.000000 -2.000000
v 1.000000 -2.000000 0.000000
v 1.000000 2.000000 0.000000
v 1.000000 0.000000 2.000000
v -0.800000 -0.200000 2.000000
v 0.800000 -1.800000 2.000000
v 0.800000 -0.200000 2.000000
v -0.800000 -1.800000 2.000000
v -0.800000 -1.800000 -2.000000
v 0.800000 -0.200000 -2.000000
v -0.800000 -0.200000 -2.000000
v 0.800000 -1.800000 -2.000000
vn -1.0000 -0.0000 -0.0000
vn -0.0000 -0.0000 -1.0000
vn -0.0000 1.0000 -0.0000
vn -0.0000 -1.0000 -0.0000
vn -0.0000 -0.0000 1.0000
vn 1.0000 -0.0000 -0.0000
vt 0.500000 0.125000
vt 0.625000 0.125000
vt 0.625000 0.250000
vt 0.500000 0.250000
vt 0.625000 0.500000
vt 0.500000 0.500000
vt 0.500000 0.750000
vt 0.625000 0.750000
vt 0.625000 1.000000
vt 0.500000 1.000000
vt 0.125000 0.625000
vt 0.375000 0.625000
vt 0.375000 0.750000
vt 0.125000 0.750000
vt 0.625000 0.625000
vt 0.875000 0.625000
vt 0.875000 0.750000
vt 0.875000 0.500000
vt 0.125000 0.500000
vt 0.375000 0.500000
vt 0.487500 0.775000
vt 0.487500 0.975000
vt 0.375000 1.000000
vt 0.387500 0.775000
vt 0.387500 0.975000
vt 0.500000 0.625000
vt 0.487500 0.275000
vt 0.487500 0.475000
vt 0.375000 0.250000
vt 0.387500 0.275000
vt 0.387500 0.475000
vt 0.375000 0.125000
vt 0.375000 0.000000
vt 0.500000 0.000000
vt 0.625000 0.000000
s 0
usemtl Base_color
f 3/1/1 19/2/1 8/3/1 20/4/1
f 20/4/2 8/3/2 16/5/2 21/6/2
f 24/7/3 12/8/3 3/9/3 18/10/3
f 17/11/4 22/12/4 11/13/4 1/14/4
f 23/15/5 19/16/5 3/17/5 12/8/5
f 16/5/3 8/18/3 19/16/3 23/15/3
f 6/19/4 14/20/4 22/12/4 17/11/4
f 27/21/5 24/7/5 18/10/5 25/22/5
f 25/22/5 18/10/5 1/23/5 11/13/5 24/7/5 27/21/5 26/24/5 28/25/5
f 22/12/6 12/26/6 24/7/6 11/13/6
f 14/20/6 21/6/6 12/26/6 22/12/6
f 21/6/6 16/5/6 23/15/6 12/26/6
f 31/27/2 20/4/2 21/6/2 30/28/2
f 30/28/2 21/6/2 14/20/2 6/29/2 20/4/2 31/27/2 29/30/2 32/31/2
f 17/32/1 3/1/1 20/4/1 6/29/1
f 1/33/1 18/34/1 3/1/1 17/32/1
usemtl Input
f 5/29/6 10/3/6 25/2/6 28/32/6
f 5/29/5 13/20/5 15/5/5 10/3/5
f 15/5/1 13/20/1 26/12/1 27/15/1
f 26/12/3 13/20/3 5/19/3 28/11/3
f 25/16/4 10/18/4 15/5/4 27/15/4
usemtl Output
f 31/2/6 4/35/6 2/33/6 29/32/6
f 32/12/1 7/13/1 9/8/1 30/15/1
f 7/13/2 2/23/2 4/9/2 9/8/2
f 29/11/3 2/14/3 7/13/3 32/12/3
f 9/8/4 4/17/4 31/16/4 30/15/4
